<svg width="24" height="22" viewBox="0 0 24 22" fill="none" xmlns="http://www.w3.org/2000/svg">
<path fill-rule="evenodd" clip-rule="evenodd" d="M12 0.5C5.37225 0.5 0 4.52975 0 9.5C0 12.5953 2.08425 15.3245 5.256 16.9445C5.256 16.9648 5.25 16.9783 5.25 17C5.25 18.3447 4.24575 19.7922 3.804 20.552H3.8055C3.77025 20.6345 3.75 20.7253 3.75 20.8205C3.75 21.1955 4.05375 21.5 4.4295 21.5C4.5 21.5 4.62375 21.4813 4.62075 21.4895C6.9645 21.1055 9.1725 18.9522 9.6855 18.3283C10.4347 18.4385 11.2072 18.5 12 18.5C18.6262 18.5 24 14.4703 24 9.5C24 4.52975 18.627 0.5 12 0.5ZM12 17C11.3123 17 10.6065 16.9475 9.903 16.8447C9.83025 16.8328 9.7575 16.829 9.6855 16.829C9.24 16.829 8.81325 17.027 8.526 17.3765C8.205 17.7673 7.2915 18.6395 6.21225 19.2808C6.50475 18.6095 6.7335 17.8573 6.74925 17.0817C6.75375 17.0337 6.756 16.985 6.756 16.9437C6.756 16.3797 6.44025 15.8645 5.9385 15.608C3.159 14.189 1.5 11.9052 1.5 9.5C1.5 5.3645 6.21 2 12 2C17.7885 2 22.5 5.3645 22.5 9.5C22.5 13.6355 17.7892 17 12 17Z" fill="white"/>
</svg>
